<svg width="443" height="164" viewBox="0 0 443 164" fill="none" xmlns="http://www.w3.org/2000/svg">
<rect x="10" y="7" width="433" height="157" rx="26" fill="#0DBC3E"/>
<rect width="433" height="157" rx="26" fill="#41CE82"/>
<circle cx="41" cy="121" r="17" fill="white"/>
<path fill-rule="evenodd" clip-rule="evenodd" d="M124 138C120.686 138 118.019 135.306 117.816 131.999C114.874 84.2611 77.0844 46.1919 30.001 43.1907C26.694 42.9799 24 40.3137 24 37V29C24 25.6863 26.6894 22.9834 29.9986 23.1563C88.2764 26.2011 134.857 73.3562 137.847 132.002C138.016 135.311 135.314 138 132 138H124Z" fill="white"/>
<path fill-rule="evenodd" clip-rule="evenodd" d="M87 138C83.6863 138 81.0332 135.305 80.689 132.009C77.9007 105.314 56.6863 84.0993 29.9906 81.311C26.6948 80.9668 24 78.3137 24 75V67C24 63.6863 26.6958 60.9757 29.9997 61.2303C67.7418 64.139 97.861 94.2582 100.77 132C101.024 135.304 98.3137 138 95 138H87Z" fill="white"/>
<path d="M163.112 112L182.696 45.952H209.96L229.448 112H209.768L206.6 100.672H185.48L182.408 112H163.112ZM189.032 86.656H202.952L196.328 62.272H195.56L189.032 86.656ZM238.984 112V76.192H230.44V63.04H238.984V48.832H257.416V63.04H267.592V76.192H257.416V112H238.984ZM296.773 112.768C292.229 112.768 288.453 112.512 285.445 112C282.501 111.552 280.165 110.752 278.437 109.6C276.709 108.448 275.461 106.912 274.693 104.992C273.925 103.008 273.413 100.608 273.157 97.792C272.965 94.912 272.869 91.488 272.869 87.52C272.869 83.552 272.965 80.16 273.157 77.344C273.413 74.464 273.925 72.064 274.693 70.144C275.461 68.16 276.709 66.592 278.437 65.44C280.165 64.288 282.501 63.488 285.445 63.04C288.453 62.528 292.229 62.272 296.773 62.272C301.253 62.272 304.965 62.528 307.909 63.04C310.917 63.488 313.285 64.288 315.013 65.44C316.741 66.592 317.989 68.16 318.757 70.144C319.589 72.064 320.101 74.464 320.293 77.344C320.549 80.16 320.677 83.552 320.677 87.52C320.677 91.488 320.549 94.912 320.293 97.792C320.101 100.608 319.589 103.008 318.757 104.992C317.989 106.912 316.741 108.448 315.013 109.6C313.285 110.752 310.917 111.552 307.909 112C304.965 112.512 301.253 112.768 296.773 112.768ZM296.773 99.616C298.181 99.616 299.269 99.52 300.037 99.328C300.869 99.136 301.445 98.656 301.765 97.888C302.149 97.056 302.373 95.808 302.437 94.144C302.501 92.48 302.533 90.272 302.533 87.52C302.533 84.64 302.501 82.4 302.437 80.8C302.373 79.2 302.149 78.016 301.765 77.248C301.445 76.416 300.869 75.904 300.037 75.712C299.269 75.52 298.181 75.424 296.773 75.424C295.301 75.424 294.149 75.52 293.317 75.712C292.549 75.904 292.005 76.416 291.685 77.248C291.365 78.016 291.173 79.2 291.109 80.8C291.045 82.4 291.013 84.64 291.013 87.52C291.013 90.272 291.045 92.48 291.109 94.144C291.173 95.808 291.365 97.056 291.685 97.888C292.005 98.656 292.549 99.136 293.317 99.328C294.149 99.52 295.301 99.616 296.773 99.616ZM329.726 112V63.04H347.198L347.582 68.704H348.446C349.47 67.04 350.718 65.76 352.19 64.864C353.662 63.904 355.198 63.232 356.798 62.848C358.462 62.464 360.094 62.272 361.694 62.272C365.406 62.272 368.254 62.784 370.238 63.808C372.286 64.832 373.726 66.464 374.558 68.704H375.422C376.446 67.04 377.694 65.76 379.166 64.864C380.638 63.904 382.206 63.232 383.87 62.848C385.534 62.464 387.198 62.272 388.862 62.272C392.894 62.272 395.902 63.008 397.886 64.48C399.934 65.952 401.278 68.128 401.918 71.008C402.622 73.824 402.974 77.28 402.974 81.376V112H384.734V86.176C384.734 83.872 384.67 82.08 384.542 80.8C384.478 79.52 384.286 78.592 383.966 78.016C383.71 77.44 383.262 77.088 382.622 76.96C382.046 76.768 381.246 76.672 380.222 76.672C379.07 76.672 378.142 76.8 377.438 77.056C376.798 77.248 376.318 77.664 375.998 78.304C375.742 78.944 375.582 79.904 375.518 81.184C375.454 82.464 375.422 84.192 375.422 86.368V112H357.278V86.176C357.278 83.872 357.214 82.08 357.086 80.8C357.022 79.52 356.83 78.592 356.51 78.016C356.254 77.44 355.806 77.088 355.166 76.96C354.59 76.768 353.79 76.672 352.766 76.672C351.614 76.672 350.686 76.8 349.982 77.056C349.342 77.248 348.862 77.664 348.542 78.304C348.286 78.944 348.094 79.904 347.966 81.184C347.902 82.464 347.87 84.192 347.87 86.368V112H329.726Z" fill="white"/>
</svg>
