<svg width="443" height="164" viewBox="0 0 443 164" fill="none" xmlns="http://www.w3.org/2000/svg">
<rect x="10" y="7" width="433" height="157" rx="26" fill="#E78717"/>
<rect width="433" height="157" rx="26" fill="#F0A650"/>
<circle cx="41" cy="121" r="17" fill="white"/>
<path fill-rule="evenodd" clip-rule="evenodd" d="M124 138C120.686 138 118.019 135.306 117.816 131.999C114.874 84.2611 77.0844 46.1919 30.001 43.1907C26.694 42.9799 24 40.3137 24 37V29C24 25.6863 26.6894 22.9834 29.9986 23.1563C88.2764 26.2011 134.857 73.3562 137.847 132.002C138.016 135.311 135.314 138 132 138H124Z" fill="white"/>
<path fill-rule="evenodd" clip-rule="evenodd" d="M87 138C83.6863 138 81.0332 135.305 80.689 132.009C77.9007 105.314 56.6863 84.0993 29.9906 81.311C26.6948 80.9668 24 78.3137 24 75V67C24 63.6863 26.6958 60.9757 29.9997 61.2303C67.7418 64.139 97.861 94.2582 100.77 132C101.024 135.304 98.3137 138 95 138H87Z" fill="white"/>
<path d="M182.272 113V46.952H215.968C220.384 46.952 223.936 47.432 226.624 48.392C229.312 49.288 231.328 50.664 232.672 52.52C234.08 54.312 235.008 56.584 235.456 59.336C235.968 62.024 236.224 65.128 236.224 68.648C236.224 71.464 236.032 74.12 235.648 76.616C235.328 79.112 234.56 81.352 233.344 83.336C232.192 85.256 230.464 86.792 228.16 87.944L237.568 113H217.216L208.672 86.792L213.568 89.48C212.992 89.864 212.384 90.12 211.744 90.248C211.104 90.312 210.272 90.344 209.248 90.344H202.048V113H182.272ZM202.048 76.616H208.576C210.368 76.616 211.776 76.552 212.8 76.424C213.824 76.232 214.592 75.88 215.104 75.368C215.68 74.856 216.032 74.088 216.16 73.064C216.352 72.04 216.448 70.664 216.448 68.936C216.448 67.272 216.384 65.928 216.256 64.904C216.192 63.88 215.904 63.112 215.392 62.6C214.944 62.088 214.176 61.736 213.088 61.544C212 61.288 210.496 61.16 208.576 61.16H202.048V76.616ZM289.597 113.768C286.973 113.768 284.125 113.672 281.053 113.48C277.981 113.352 275.005 113.192 272.125 113C269.245 112.744 266.685 112.456 264.445 112.136V98.216C266.813 98.408 269.149 98.6 271.453 98.792C273.821 98.92 276.029 99.048 278.077 99.176C280.189 99.24 281.981 99.272 283.453 99.272C286.205 99.272 288.285 99.208 289.693 99.08C291.165 98.888 292.189 98.568 292.765 98.12C293.213 97.8 293.501 97.448 293.629 97.064C293.821 96.616 293.949 96.104 294.013 95.528C294.077 94.952 294.109 94.312 294.109 93.608C294.109 92.52 294.013 91.656 293.821 91.016C293.629 90.376 293.277 89.864 292.765 89.48C292.253 89.096 291.453 88.808 290.365 88.616C289.341 88.36 287.933 88.136 286.141 87.944L273.853 86.408C271.549 86.088 269.661 85.416 268.189 84.392C266.781 83.368 265.629 82.024 264.733 80.36C263.901 78.632 263.325 76.584 263.005 74.216C262.685 71.784 262.525 69.128 262.525 66.248C262.525 61.896 263.165 58.408 264.445 55.784C265.789 53.096 267.613 51.08 269.917 49.736C272.285 48.328 275.005 47.4 278.077 46.952C281.213 46.44 284.573 46.184 288.157 46.184C290.845 46.184 293.565 46.28 296.317 46.472C299.133 46.664 301.789 46.888 304.285 47.144C306.781 47.4 308.829 47.72 310.429 48.104V61.832C308.829 61.64 306.941 61.448 304.765 61.256C302.589 61.064 300.349 60.936 298.045 60.872C295.741 60.744 293.565 60.68 291.517 60.68C289.533 60.68 287.933 60.744 286.717 60.872C285.565 61 284.669 61.256 284.029 61.64C283.325 62.024 282.845 62.568 282.589 63.272C282.397 63.912 282.301 64.712 282.301 65.672C282.301 67.016 282.397 68.04 282.589 68.744C282.781 69.448 283.293 69.928 284.125 70.184C284.957 70.44 286.269 70.696 288.061 70.952L299.581 72.296C301.245 72.488 302.813 72.808 304.285 73.256C305.821 73.704 307.197 74.408 308.413 75.368C309.693 76.328 310.813 77.704 311.773 79.496C312.221 80.328 312.573 81.352 312.829 82.568C313.085 83.72 313.309 85.096 313.501 86.696C313.693 88.296 313.789 90.12 313.789 92.168C313.789 96.072 313.405 99.336 312.637 101.96C311.869 104.584 310.749 106.696 309.277 108.296C307.805 109.832 306.045 111.016 303.997 111.848C302.013 112.616 299.805 113.128 297.373 113.384C294.941 113.64 292.349 113.768 289.597 113.768ZM366.618 113.768C363.994 113.768 361.146 113.672 358.074 113.48C355.002 113.352 352.026 113.192 349.146 113C346.266 112.744 343.706 112.456 341.466 112.136V98.216C343.834 98.408 346.17 98.6 348.474 98.792C350.842 98.92 353.05 99.048 355.098 99.176C357.21 99.24 359.002 99.272 360.474 99.272C363.226 99.272 365.306 99.208 366.714 99.08C368.186 98.888 369.21 98.568 369.786 98.12C370.234 97.8 370.522 97.448 370.65 97.064C370.842 96.616 370.97 96.104 371.034 95.528C371.098 94.952 371.13 94.312 371.13 93.608C371.13 92.52 371.034 91.656 370.842 91.016C370.65 90.376 370.298 89.864 369.786 89.48C369.274 89.096 368.474 88.808 367.386 88.616C366.362 88.36 364.954 88.136 363.162 87.944L350.874 86.408C348.57 86.088 346.682 85.416 345.21 84.392C343.802 83.368 342.65 82.024 341.754 80.36C340.922 78.632 340.346 76.584 340.026 74.216C339.706 71.784 339.546 69.128 339.546 66.248C339.546 61.896 340.186 58.408 341.466 55.784C342.81 53.096 344.634 51.08 346.938 49.736C349.306 48.328 352.026 47.4 355.098 46.952C358.234 46.44 361.594 46.184 365.178 46.184C367.866 46.184 370.586 46.28 373.338 46.472C376.154 46.664 378.81 46.888 381.306 47.144C383.802 47.4 385.85 47.72 387.45 48.104V61.832C385.85 61.64 383.962 61.448 381.786 61.256C379.61 61.064 377.37 60.936 375.066 60.872C372.762 60.744 370.586 60.68 368.538 60.68C366.554 60.68 364.954 60.744 363.738 60.872C362.586 61 361.69 61.256 361.05 61.64C360.346 62.024 359.866 62.568 359.61 63.272C359.418 63.912 359.322 64.712 359.322 65.672C359.322 67.016 359.418 68.04 359.61 68.744C359.802 69.448 360.314 69.928 361.146 70.184C361.978 70.44 363.29 70.696 365.082 70.952L376.602 72.296C378.266 72.488 379.834 72.808 381.306 73.256C382.842 73.704 384.218 74.408 385.434 75.368C386.714 76.328 387.834 77.704 388.794 79.496C389.242 80.328 389.594 81.352 389.85 82.568C390.106 83.72 390.33 85.096 390.522 86.696C390.714 88.296 390.81 90.12 390.81 92.168C390.81 96.072 390.426 99.336 389.658 101.96C388.89 104.584 387.77 106.696 386.298 108.296C384.826 109.832 383.066 111.016 381.018 111.848C379.034 112.616 376.826 113.128 374.394 113.384C371.962 113.64 369.37 113.768 366.618 113.768Z" fill="white"/>
</svg>
