<svg xmlns="http://www.w3.org/2000/svg" viewBox="0 0 1347.77 196.35"><defs><style>.cls-1{fill:#ffffb3;}</style></defs><g id="Layer_2" data-name="Layer 2"><g id="Layer_1-2" data-name="Layer 1"><path class="cls-1" d="M89.45,186.53a430.18,430.18,0,0,1,73.17-39.71l-14.22,6a451.61,451.61,0,0,1,112.72-30.75l-15.83,2.13A451.37,451.37,0,0,1,364.1,124l-15.83-2.13c33.46,4.55,65.77,13.2,97.38,25,28.45,10.6,57.39,19.37,86.27,28.7,30.79,9.94,62.11,18.73,94.61,20.66,17.43,1,34.44-2.67,51.09-7.41,17.61-5,35.3-9.77,53.08-14.15,30.27-7.46,60.83-13.88,91.73-18.11l-15.83,2.13c35.93-4.82,72.06-6.12,108-1.32l-15.82-2.13c48,6.5,95.72,19.34,144.58,15,10.79-.95,22.27-1.92,32.66-5.51,9.89-3.42,19.35-8.06,29-12.16l-14.22,6c14.31-6,30.1-11.78,45.48-14.05l-15.83,2.12c11.94-1.39,24.2.64,36,2.05,17.58,2.08,33.29,2.73,50.94-.37,15.55-2.73,31-9.57,46-14.52q25.29-8.35,50.58-16.68c14.68-4.82,27.65-13.8,35.58-27.36,7.47-12.76,10.63-31.57,6-45.87S1332,15.57,1318.24,8.3s-30.6-11-45.87-6q-25.3,8.29-50.58,16.68l-24.94,8.23c-6.88,2.26-13.85,5.24-21,6.29l15.82-2.12c-23.37,2.73-46.59-6-70-3.95-30.89,2.74-58.2,14.6-86.39,26.52l14.22-6a70.76,70.76,0,0,1-17.61,4.88l15.82-2.13c-23,2.9-47.33.94-70.3-2.14l15.82,2.13c-33.32-4.53-66-12.16-99.66-14.67-49.45-3.69-99.69,3.69-148.06,13.36-18.93,3.78-37.73,8.16-56.43,12.92q-16.53,4.22-32.95,8.8c-9.54,2.65-19.09,6.23-28.9,7.69L643,76.67c-9.07,1.14-18.18.55-27.2-.63l15.82,2.13c-32.83-4.61-64.09-16.49-95.56-26.38-18.68-5.87-37.18-11.7-55.54-18.57C461.31,26,441.89,19.53,421.87,14.78,336.63-5.44,245.56-3.17,161.57,21.93,115,35.84,69.63,56.47,29.36,83.72,16.43,92.47,6.24,103.89,2,119.3c-3.92,14.25-2.15,33.22,6,45.87s20.4,23.9,35.58,27.36,32.65,2.94,45.87-6Z"/></g></g></svg>